# xmcd CD database file
#
# Track frame offsets:
#	187
#	13962
#	34150
#	48325
#	68075
#	77412
#	91125
#	103687
#	118162
#	129612
#	145600
#	162975
#	184987
#	197675
#	217625
#	227062
#	236687
#	249175
#	270187
#	285062
#
# Disc length: 4077 seconds
#
# Revision: 1
# Processed by: cddbd v1.5PL3 Copyright (c) Steve Scherf et al.
# Submitted via: CDex 1.40Release
#
DISCID=030feb14
DTITLE=Elvis Presley - Elvis Presley By Request Best 20
DYEAR=1900
DGENRE=Rock and Roll
TTITLE0=Can't help falling in love 
TTITLE1=An American trilogy 
TTITLE2=Are you lonesome tonight? 
TTITLE3=Suspicious minds 
TTITLE4=Don't be cruel 
TTITLE5=How great thou art 
TTITLE6=Love me tender 
TTITLE7=If I can dream 
TTITLE8=You don't have to say you love me 
TTITLE9=I've lost you 
TTITLE10=My way 
TTITLE11=Polk salad annie 
TTITLE12=In the ghetto 
TTITLE13=You've lost that lovin' feelin' 
TTITLE14=I need you love tonight 
TTITLE15=Heartbreak hotel 
TTITLE16=I'll remember you 
TTITLE17=I just can't help believin' 
TTITLE18=Memories
TTITLE19=Bridge over troubled water
EXTD=ID3G: 78
EXTT0=
EXTT1=
EXTT2=
EXTT3=
EXTT4=
EXTT5=
EXTT6=
EXTT7=
EXTT8=
EXTT9=
EXTT10=
EXTT11=
EXTT12=
EXTT13=
EXTT14=
EXTT15=
EXTT16=
EXTT17=
EXTT18=
EXTT19=
PLAYORDER=
